<svg width="38" height="37" viewBox="0 0 38 37" fill="none" xmlns="http://www.w3.org/2000/svg">
<path d="M12.3956 29.3189C12.3956 29.4679 12.2236 29.5879 12.0076 29.5879C11.7616 29.6099 11.5896 29.4879 11.5896 29.3189C11.5896 29.1699 11.7616 29.0499 11.9776 29.0499C12.2006 29.0279 12.3956 29.1469 12.3956 29.3189ZM10.0746 28.9829C10.0226 29.1319 10.1746 29.3039 10.3956 29.3489C10.477 29.389 10.5708 29.3958 10.6572 29.368C10.7435 29.3402 10.8157 29.2799 10.8586 29.1999C10.9036 29.0509 10.7586 28.8789 10.5376 28.8119C10.4525 28.781 10.3592 28.7812 10.2743 28.8125C10.1893 28.8438 10.1182 28.9042 10.0736 28.9829H10.0746ZM13.3746 28.8559C13.1586 28.9079 13.0086 29.0499 13.0316 29.2219C13.0536 29.3709 13.2476 29.4679 13.4716 29.4159C13.6956 29.3639 13.8376 29.2219 13.8146 29.0729C13.7916 28.9239 13.5896 28.8339 13.3726 28.8559H13.3746ZM18.2846 0.253924C15.8763 0.203489 13.4826 0.639643 11.2469 1.53626C9.0112 2.43288 6.97946 3.77152 5.27339 5.47199C3.56731 7.17246 2.222 9.19979 1.31803 11.4325C0.414065 13.6653 -0.0299598 16.0575 0.012554 18.4659C-0.0189009 22.393 1.18595 26.2304 3.45647 29.4348C5.72699 32.6391 8.94808 35.0478 12.6636 36.3199C13.6186 36.4919 13.9546 35.9019 13.9546 35.4199C13.9546 34.9569 13.9326 32.4049 13.9326 30.8369C13.9326 30.8369 8.70755 31.9569 7.61055 28.6129C7.61055 28.6129 6.75955 26.4409 5.53555 25.8809C5.53555 25.8809 3.82655 24.7089 5.65455 24.7319C6.24981 24.8121 6.81885 25.0274 7.31818 25.3612C7.81751 25.695 8.23391 26.1385 8.53555 26.6579C8.78476 27.1231 9.12475 27.5336 9.53541 27.8651C9.94607 28.1966 10.4191 28.4423 10.9264 28.5878C11.4337 28.7333 11.965 28.7755 12.4889 28.7119C13.0129 28.6484 13.5187 28.4804 13.9766 28.2179C14.0729 27.2671 14.4947 26.3787 15.1706 25.7029C10.9986 25.2399 6.78855 24.6359 6.78855 17.4549C6.74642 16.6378 6.88204 15.8213 7.18607 15.0616C7.49009 14.302 7.95528 13.6173 8.54955 13.0549C7.98541 11.4013 8.05526 9.59703 8.74555 7.99192C10.3056 7.50692 13.8956 10.0069 13.8956 10.0069C16.9633 9.16096 20.2028 9.16096 23.2706 10.0069C23.2706 10.0069 26.8596 7.49192 28.4196 7.99192C29.1108 9.59868 29.1799 11.405 28.6136 13.0599C29.2302 13.6132 29.7212 14.2922 30.0534 15.0512C30.3856 15.8102 30.5514 16.6315 30.5396 17.4599C30.5396 24.6599 26.1396 25.2369 21.9706 25.7079C22.4193 26.1595 22.765 26.7028 22.9841 27.3005C23.2031 27.8983 23.2903 28.5363 23.2396 29.1709C23.2396 31.6859 23.2176 34.7989 23.2176 35.4109C23.2176 35.8959 23.5606 36.4859 24.5086 36.3109C28.2136 35.0408 31.4211 32.6299 33.6713 29.424C35.9214 26.2182 37.0984 22.3821 37.0336 18.4659C37.0336 8.11392 28.6366 0.253924 18.2846 0.253924ZM7.26755 25.9969C7.16755 26.0719 7.19255 26.2429 7.31955 26.3849C7.43855 26.5039 7.61055 26.5569 7.70755 26.4599C7.80755 26.3849 7.78255 26.2139 7.65555 26.0719C7.53655 25.9529 7.36455 25.8999 7.26755 25.9969ZM6.46155 25.3969C6.40955 25.4969 6.48355 25.6129 6.63355 25.6879C6.65764 25.7067 6.68533 25.7202 6.71489 25.7278C6.74445 25.7354 6.77526 25.7367 6.80538 25.7319C6.83551 25.727 6.8643 25.7159 6.88997 25.6994C6.91563 25.6829 6.93762 25.6613 6.95455 25.6359C7.00655 25.5359 6.93255 25.4199 6.78255 25.3449C6.63255 25.2919 6.51255 25.3179 6.46155 25.3919V25.3969ZM8.87955 28.0539C8.76055 28.1539 8.80455 28.3749 8.97955 28.5169C9.15155 28.6889 9.36755 28.7109 9.46455 28.5919C9.56455 28.4919 9.51655 28.2709 9.36455 28.1289C9.20055 27.9529 8.97655 27.9299 8.87955 28.0499V28.0539ZM8.02855 26.9539C7.90955 27.0289 7.90955 27.2229 8.02855 27.3939C8.14755 27.5649 8.34955 27.6399 8.44655 27.5659C8.50503 27.503 8.53754 27.4203 8.53754 27.3344C8.53754 27.2485 8.50503 27.1658 8.44655 27.1029C8.34255 26.9299 8.14855 26.8559 8.02855 26.9529V26.9539Z" fill="black"/>
</svg>
