<svg width="36" height="32" viewBox="0 0 36 32" fill="none" xmlns="http://www.w3.org/2000/svg">
<path d="M34.081 18.326C34.214 17.583 34.281 16.832 34.281 16.081C34.281 8.13699 27.011 1.698 18.042 1.698C17.181 1.698 16.333 1.761 15.508 1.875C14.012 1.056 12.247 0.580994 10.355 0.580994C4.93598 0.580994 0.541992 4.47201 0.541992 9.27301C0.541992 10.948 1.07799 12.51 2.00299 13.837C1.87499 14.57 1.80499 15.317 1.80499 16.081C1.80499 24.025 9.07502 30.462 18.041 30.462C18.903 30.462 19.75 30.403 20.576 30.288C22.073 31.106 23.837 31.581 25.729 31.581C31.149 31.581 35.542 27.69 35.542 22.889C35.543 21.214 35.007 19.652 34.081 18.326ZM25.751 22.622C25.064 23.498 24.056 24.182 22.737 24.674C21.415 25.168 19.854 25.413 18.051 25.413C15.889 25.413 14.099 25.078 12.687 24.402C11.686 23.918 10.871 23.268 10.245 22.457C9.618 21.646 9.29999 20.852 9.29999 20.078C9.29999 19.621 9.49703 19.224 9.87903 18.9C10.266 18.574 10.764 18.41 11.352 18.41C11.834 18.41 12.248 18.539 12.585 18.793C12.919 19.048 13.2 19.418 13.429 19.906C13.704 20.472 14.003 20.945 14.32 21.322C14.636 21.695 15.081 22.006 15.656 22.25C16.226 22.494 16.983 22.616 17.931 22.616C19.229 22.616 20.277 22.368 21.08 21.877C21.886 21.383 22.274 20.781 22.274 20.053C22.274 19.473 22.065 19.011 21.637 18.652C21.205 18.288 20.646 18.011 19.953 17.818C19.258 17.623 18.324 17.415 17.154 17.197C15.583 16.893 14.269 16.54 13.205 16.134C12.139 15.726 11.291 15.169 10.662 14.466C10.032 13.755 9.71698 12.872 9.71698 11.826C9.71698 10.828 10.049 9.936 10.713 9.16C11.377 8.381 12.338 7.785 13.59 7.37C14.838 6.955 16.307 6.74799 17.99 6.74799C19.336 6.74799 20.501 6.886 21.486 7.16C22.469 7.437 23.288 7.802 23.943 8.259C24.594 8.716 25.073 9.19801 25.377 9.70401C25.68 10.211 25.832 10.706 25.832 11.189C25.832 11.639 25.636 12.046 25.253 12.403C24.869 12.761 24.379 12.943 23.807 12.942C23.291 12.942 22.886 12.836 22.605 12.613C22.332 12.397 22.045 12.053 21.734 11.574C21.341 10.906 20.871 10.385 20.324 10.012C19.792 9.64699 18.913 9.45601 17.691 9.45901C16.56 9.45901 15.655 9.663 14.972 10.064C14.285 10.47 13.956 10.942 13.955 11.495C13.956 11.842 14.068 12.134 14.295 12.383C14.524 12.636 14.844 12.854 15.255 13.038C15.666 13.225 16.084 13.37 16.505 13.474C16.93 13.581 17.635 13.735 18.616 13.939C19.845 14.174 20.961 14.436 21.963 14.722C22.963 15.009 23.817 15.356 24.523 15.769C25.233 16.18 25.789 16.705 26.186 17.339C26.585 17.973 26.784 18.749 26.784 19.661C26.786 20.759 26.44 21.747 25.751 22.622Z" fill="#00A6A6"/>
</svg>
