<svg width="35" height="32" viewBox="0 0 35 32" fill="none" xmlns="http://www.w3.org/2000/svg">
<path d="M33.5389 17.8643C33.6717 17.1217 33.7384 16.3711 33.7384 15.6192C33.7384 7.67578 26.4685 1.2368 17.4994 1.2368C16.6388 1.2368 15.791 1.29948 14.9654 1.41384C13.4697 0.594417 11.7045 0.120117 9.81296 0.120117C4.39333 0.120117 0 4.01093 0 8.8114C0 10.4864 0.535897 12.0485 1.46069 13.3759C1.33276 14.1089 1.26234 14.8553 1.26234 15.6196C1.26234 23.5634 8.53231 30.0007 17.499 30.0007C18.3604 30.0007 19.2082 29.9418 20.0338 29.8264C21.5311 30.6445 23.2947 31.1201 25.1863 31.1201C30.6071 31.1201 35 27.2283 35 22.4278C35.0004 20.7524 34.4649 19.1904 33.5389 17.8643ZM25.2092 22.1605C24.5221 23.0364 23.5133 23.7209 22.1945 24.213C20.8731 24.7063 19.3116 24.9519 17.5084 24.9519C15.3469 24.9519 13.5572 24.6171 12.1447 23.9406C11.1433 23.4563 10.329 22.8064 9.70288 21.9959C9.07559 21.1851 8.75747 20.3911 8.75747 19.6168C8.75747 19.1601 8.95428 18.7626 9.33695 18.4389C9.72388 18.1127 10.222 17.9491 10.8101 17.9491C11.2919 17.9491 11.7057 18.0775 12.0425 18.3321C12.3769 18.5866 12.6573 18.9566 12.8868 19.445C13.1617 20.0109 13.4604 20.4838 13.7781 20.8609C14.0939 21.2336 14.5384 21.545 15.1139 21.7885C15.6833 22.0327 16.4408 22.1547 17.389 22.1547C18.6863 22.1547 19.7351 21.9063 20.5374 21.4158C21.344 20.9212 21.7317 20.3192 21.7317 19.5913C21.7317 19.0113 21.5225 18.5501 21.0943 18.1909C20.6623 17.8271 20.1038 17.5498 19.4112 17.3566C18.7159 17.1613 17.7821 16.954 16.612 16.7356C15.0408 16.4321 13.7268 16.0784 12.6628 15.6726C11.5972 15.2648 10.7486 14.7079 10.1198 14.0042C9.48937 13.2936 9.17517 12.4104 9.17517 11.3644C9.17517 10.3669 9.50687 9.47477 10.1711 8.69841C10.8349 7.91996 11.7955 7.32408 13.0478 6.90906C14.2957 6.494 15.7649 6.28664 17.4481 6.28664C18.794 6.28664 19.9584 6.4244 20.9438 6.69894C21.927 6.97552 22.746 7.3403 23.4008 7.79804C24.0522 8.25477 24.531 8.73663 24.8343 9.24227C25.1373 9.74931 25.2901 10.2446 25.2901 10.7279C25.2901 11.1774 25.0933 11.5848 24.7103 11.942C24.3268 12.2999 23.8368 12.4821 23.2644 12.4804C22.7483 12.4804 22.3435 12.375 22.0627 12.1518C21.7893 11.9358 21.5023 11.5921 21.1916 11.1129C20.7992 10.4444 20.329 9.92359 19.7818 9.55091C19.2494 9.18545 18.3709 8.99498 17.1486 8.99737C16.0177 8.99737 15.1128 9.20197 14.4299 9.60221C13.7427 10.009 13.4141 10.4809 13.4125 11.0337C13.4137 11.3802 13.5261 11.6723 13.7524 11.922C13.9822 12.1742 14.3019 12.3925 14.713 12.5768C15.124 12.7638 15.5421 12.9085 15.9625 13.0125C16.3876 13.1193 17.093 13.2736 18.0734 13.4779C19.3031 13.7128 20.4188 13.9749 21.421 14.2608C22.4212 14.548 23.2749 14.8946 23.9803 15.3072C24.6912 15.7188 25.2469 16.2434 25.6436 16.8772C26.0426 17.512 26.2417 18.2873 26.2417 19.1994C26.2433 20.2981 25.8976 21.286 25.2092 22.1605V22.1605Z" fill="#F9F9F9"/>
</svg>
